<?xml version="1.0" standalone="no"?>
<!DOCTYPE svg PUBLIC "-//W3C//DTD SVG 20010904//EN"
 "http://www.w3.org/TR/2001/REC-SVG-20010904/DTD/svg10.dtd">
<svg version="1.0" xmlns="http://www.w3.org/2000/svg"
 width="500.000000pt" height="500.000000pt" viewBox="0 0 500.000000 500.000000"
 preserveAspectRatio="xMidYMid meet">
<metadata>
Created by potrace 1.16, written by Peter Selinger 2001-2019
</metadata>
<g transform="translate(0.000000,500.000000) scale(0.100000,-0.100000)"
fill="#000000" stroke="none">
<path d="M2415 4869 c-230 -54 -536 -216 -631 -335 -41 -52 -84 -130 -84 -154
0 -10 -5 -22 -11 -26 -6 -3 -9 -20 -7 -36 7 -47 -12 -44 -57 8 -24 27 -46 47
-49 43 -3 -3 15 -35 39 -72 25 -36 45 -69 45 -72 0 -3 16 -29 35 -57 19 -28
32 -55 29 -60 -11 -17 -95 -8 -144 17 -53 27 -90 70 -111 128 -7 20 -16 37
-20 37 -11 0 -112 -129 -179 -229 -228 -342 -351 -836 -320 -1288 6 -82 13
-159 16 -173 3 -14 10 -47 14 -75 64 -393 293 -822 565 -1059 77 -68 178 -141
236 -174 20 -11 45 -25 55 -31 73 -42 205 -90 319 -117 88 -21 325 -29 423
-15 144 21 298 83 447 179 412 264 752 823 847 1392 17 99 17 481 0 580 -19
113 -66 301 -92 365 -4 11 -13 36 -20 55 -82 234 -253 499 -385 595 -155 112
-278 99 -403 -42 -31 -35 -58 -60 -60 -55 -1 5 6 33 18 61 58 148 -6 250 -264
426 -82 56 -99 80 -91 127 9 54 -5 68 -69 67 -28 -1 -69 -5 -91 -10z m92 -81
c3 -50 36 -88 137 -161 136 -98 205 -164 227 -215 33 -75 24 -108 -78 -293
-118 -213 -146 -284 -202 -506 -20 -76 -25 -152 -25 -323 0 -178 12 -292 31
-311 6 -6 19 -9 28 -7 16 3 18 21 21 193 3 201 3 212 29 345 17 92 21 106 60
220 84 243 297 544 411 577 35 11 49 10 92 -6 98 -36 179 -111 278 -256 101
-149 218 -413 254 -579 31 -137 39 -185 40 -218 0 -20 4 -39 8 -42 13 -8 20
-216 11 -331 -7 -105 -32 -266 -48 -319 -6 -17 -24 -78 -42 -136 -151 -496
-493 -942 -865 -1129 -133 -67 -237 -95 -426 -118 -26 -3 -75 -1 -110 5 -35 6
-100 16 -146 23 -45 6 -85 15 -88 20 -3 5 -14 9 -24 9 -29 0 -206 78 -285 126
-264 161 -494 438 -630 759 -31 73 -34 80 -54 140 -63 187 -111 476 -111 671
0 78 33 356 51 427 5 23 14 60 19 82 5 22 16 63 24 90 9 28 21 66 27 85 30
101 83 220 149 335 33 59 150 225 158 225 4 0 24 -18 44 -40 63 -66 167 -105
254 -93 38 5 41 3 69 -38 48 -74 123 -155 278 -300 151 -142 186 -164 215
-136 14 15 12 19 -24 54 -22 21 -68 63 -104 93 -35 30 -71 62 -80 71 -221 229
-293 331 -327 458 -11 46 -12 64 -2 101 29 107 94 187 220 271 88 58 246 139
272 139 9 0 18 4 21 9 3 4 18 11 33 15 16 3 60 15 98 25 90 26 109 24 112 -11z"/>
<path d="M2301 930 c-245 -88 -349 -353 -224 -569 73 -126 219 -204 375 -200
202 5 355 121 404 304 18 64 17 111 0 178 -36 139 -130 239 -270 287 -79 27
-210 27 -285 0z"/>
</g>
</svg>
